<svg width="270" height="270" viewBox="0 0 270 270" fill="none" xmlns="http://www.w3.org/2000/svg">
<mask id="path-1-outside-1_0_1" maskUnits="userSpaceOnUse" x="46" y="24" width="174" height="217" fill="black">
<rect fill="white" x="46" y="24" width="174" height="217"/>
<path d="M144.709 29.0684C136.994 35.6113 133.137 43.5703 133.137 52.9453C133.137 62.2227 135.676 71.5488 140.754 80.9238C145.93 90.2012 151.936 98.1113 158.771 104.654C165.607 111.197 170.881 116.422 174.592 120.328C178.4 124.137 182.648 128.775 187.336 134.244C192.121 139.615 195.881 144.449 198.615 148.746C205.354 159.195 208.723 168.375 208.723 176.285C208.723 184.098 207.062 191.373 203.742 198.111C200.52 204.85 195.881 211.002 189.826 216.568C183.869 222.037 176.203 226.578 166.828 230.191C157.551 233.805 147.297 235.855 136.066 236.344C139.191 231.852 140.754 227.164 140.754 222.281C140.754 217.301 139.729 212.271 137.678 207.193C135.627 202.018 132.502 196.5 128.303 190.641C121.564 181.168 113.996 171.891 105.598 162.809C97.2969 153.727 91.4863 147.232 88.166 143.326C84.9434 139.42 81.2812 134.488 77.1797 128.531C69.1719 117.008 65.168 105.436 65.168 93.8145C65.168 82.1934 68.7324 71.4023 75.8613 61.4414C82.9902 51.4805 92.6094 43.6191 104.719 37.8574C116.926 32.0957 130.256 29.166 144.709 29.0684ZM193.488 117.545C193.488 108.072 191.779 98.3066 188.361 88.248C181.623 68.6191 170.393 52.7988 154.67 40.7871C154.865 39.0293 156.525 36.9297 159.65 34.4883C162.775 32.0469 165.363 30.8262 167.414 30.8262C174.543 30.8262 182.844 32.2422 192.316 35.0742C201.887 37.9062 209.455 40.6406 215.021 43.2773C215.51 46.207 215.754 51.334 215.754 58.6582C215.754 65.8848 215.07 74.9668 213.703 85.9043C212.336 96.7441 210.676 105.338 208.723 111.686C208.137 113.15 206.037 114.518 202.424 115.787C198.908 116.959 195.93 117.545 193.488 117.545ZM123.322 223.6C122.15 230.24 120.344 234.684 117.902 236.93C107.648 236.93 95.5391 235.611 81.5742 232.975C67.6094 230.338 57.4531 226.969 51.1055 222.867C51.0078 220.719 50.959 217.643 50.959 213.639C50.959 194.596 53.2051 176.529 57.6973 159.439C58.0879 157.877 59.748 155.924 62.6777 153.58C65.6074 151.139 68.2441 149.918 70.5879 149.918C72.834 160.66 76.8379 171.451 82.5996 182.291C88.459 193.131 95.0508 202.311 102.375 209.83C109.797 217.252 116.779 221.842 123.322 223.6Z"/>
</mask>
<path d="M144.709 29.0684C136.994 35.6113 133.137 43.5703 133.137 52.9453C133.137 62.2227 135.676 71.5488 140.754 80.9238C145.93 90.2012 151.936 98.1113 158.771 104.654C165.607 111.197 170.881 116.422 174.592 120.328C178.4 124.137 182.648 128.775 187.336 134.244C192.121 139.615 195.881 144.449 198.615 148.746C205.354 159.195 208.723 168.375 208.723 176.285C208.723 184.098 207.062 191.373 203.742 198.111C200.52 204.85 195.881 211.002 189.826 216.568C183.869 222.037 176.203 226.578 166.828 230.191C157.551 233.805 147.297 235.855 136.066 236.344C139.191 231.852 140.754 227.164 140.754 222.281C140.754 217.301 139.729 212.271 137.678 207.193C135.627 202.018 132.502 196.5 128.303 190.641C121.564 181.168 113.996 171.891 105.598 162.809C97.2969 153.727 91.4863 147.232 88.166 143.326C84.9434 139.42 81.2812 134.488 77.1797 128.531C69.1719 117.008 65.168 105.436 65.168 93.8145C65.168 82.1934 68.7324 71.4023 75.8613 61.4414C82.9902 51.4805 92.6094 43.6191 104.719 37.8574C116.926 32.0957 130.256 29.166 144.709 29.0684ZM193.488 117.545C193.488 108.072 191.779 98.3066 188.361 88.248C181.623 68.6191 170.393 52.7988 154.67 40.7871C154.865 39.0293 156.525 36.9297 159.65 34.4883C162.775 32.0469 165.363 30.8262 167.414 30.8262C174.543 30.8262 182.844 32.2422 192.316 35.0742C201.887 37.9062 209.455 40.6406 215.021 43.2773C215.51 46.207 215.754 51.334 215.754 58.6582C215.754 65.8848 215.07 74.9668 213.703 85.9043C212.336 96.7441 210.676 105.338 208.723 111.686C208.137 113.15 206.037 114.518 202.424 115.787C198.908 116.959 195.93 117.545 193.488 117.545ZM123.322 223.6C122.15 230.24 120.344 234.684 117.902 236.93C107.648 236.93 95.5391 235.611 81.5742 232.975C67.6094 230.338 57.4531 226.969 51.1055 222.867C51.0078 220.719 50.959 217.643 50.959 213.639C50.959 194.596 53.2051 176.529 57.6973 159.439C58.0879 157.877 59.748 155.924 62.6777 153.58C65.6074 151.139 68.2441 149.918 70.5879 149.918C72.834 160.66 76.8379 171.451 82.5996 182.291C88.459 193.131 95.0508 202.311 102.375 209.83C109.797 217.252 116.779 221.842 123.322 223.6Z" fill="#A21300"/>
<path d="M144.709 29.0684L147.296 32.119L155.697 24.994L144.682 25.0685L144.709 29.0684ZM140.754 80.9238L137.237 82.829L137.249 82.8509L137.261 82.8726L140.754 80.9238ZM174.592 120.328L171.692 123.083L171.727 123.12L171.763 123.157L174.592 120.328ZM187.336 134.244L184.299 136.847L184.324 136.876L184.349 136.905L187.336 134.244ZM198.615 148.746L195.241 150.894L195.247 150.904L195.254 150.914L198.615 148.746ZM203.742 198.111L200.154 196.343L200.144 196.364L200.134 196.386L203.742 198.111ZM189.826 216.568L192.531 219.515L192.533 219.513L189.826 216.568ZM166.828 230.191L165.39 226.459L165.376 226.464L166.828 230.191ZM136.066 236.344L132.783 234.059L128.17 240.691L136.24 240.34L136.066 236.344ZM137.678 207.193L133.959 208.667L133.964 208.679L133.969 208.691L137.678 207.193ZM128.303 190.641L125.043 192.959L125.051 192.971L128.303 190.641ZM105.598 162.809L102.645 165.507L102.653 165.516L102.661 165.524L105.598 162.809ZM88.166 143.326L85.0805 145.872L85.0992 145.894L85.1183 145.917L88.166 143.326ZM77.1797 128.531L80.4743 126.263L80.4694 126.256L80.4644 126.249L77.1797 128.531ZM104.719 37.8574L103.011 34.2401L103 34.2454L104.719 37.8574ZM193.488 117.545H189.488V121.545H193.488V117.545ZM188.361 88.248L192.149 86.9611L192.145 86.9493L188.361 88.248ZM154.67 40.7871L150.694 40.3454L150.445 42.5929L152.242 43.9657L154.67 40.7871ZM192.316 35.0742L191.171 38.9066L191.181 38.9098L192.316 35.0742ZM215.021 43.2773L218.967 42.6197L218.623 40.5574L216.734 39.6624L215.021 43.2773ZM213.703 85.9043L217.672 86.4048L217.672 86.4004L213.703 85.9043ZM208.723 111.686L212.437 113.171L212.498 113.019L212.546 112.862L208.723 111.686ZM202.424 115.787L203.689 119.582L203.719 119.572L203.75 119.561L202.424 115.787ZM123.322 223.6L127.261 224.295L127.898 220.687L124.36 219.737L123.322 223.6ZM117.902 236.93V240.93H119.462L120.611 239.873L117.902 236.93ZM51.1055 222.867L47.1096 223.049L47.2032 225.108L48.9346 226.227L51.1055 222.867ZM57.6973 159.439L61.5658 160.456L61.572 160.433L61.5778 160.41L57.6973 159.439ZM62.6777 153.58L65.1765 156.704L65.2077 156.679L65.2385 156.653L62.6777 153.58ZM70.5879 149.918L74.5032 149.099L73.838 145.918H70.5879V149.918ZM82.5996 182.291L79.0676 184.168L79.0741 184.181L79.0808 184.193L82.5996 182.291ZM102.375 209.83L99.5096 212.621L99.528 212.64L99.5466 212.659L102.375 209.83ZM142.122 26.0177C133.591 33.2525 129.137 42.2938 129.137 52.9453H137.137C137.137 44.8468 140.397 37.9701 147.296 32.119L142.122 26.0177ZM129.137 52.9453C129.137 62.9814 131.889 72.957 137.237 82.829L144.271 79.0187C139.462 70.1406 137.137 61.4639 137.137 52.9453H129.137ZM137.261 82.8726C142.607 92.456 148.849 100.694 156.006 107.544L161.537 101.765C155.022 95.5287 149.252 87.9464 144.247 78.975L137.261 82.8726ZM156.006 107.544C162.824 114.07 168.045 119.245 171.692 123.083L177.492 117.573C173.717 113.599 168.39 108.324 161.537 101.765L156.006 107.544ZM171.763 123.157C175.48 126.873 179.657 131.432 184.299 136.847L190.373 131.641C185.639 126.119 181.321 121.4 177.42 117.5L171.763 123.157ZM184.349 136.905C189.045 142.175 192.658 146.835 195.241 150.894L201.99 146.599C199.104 142.064 195.197 137.055 190.323 131.583L184.349 136.905ZM195.254 150.914C201.794 161.056 204.723 169.467 204.723 176.285H212.723C212.723 167.283 208.913 157.335 201.977 146.578L195.254 150.914ZM204.723 176.285C204.723 183.51 203.192 190.177 200.154 196.343L207.33 199.879C210.933 192.569 212.723 184.686 212.723 176.285H204.723ZM200.134 196.386C197.152 202.619 192.836 208.367 187.119 213.624L192.533 219.513C198.925 213.636 203.887 207.08 207.351 199.837L200.134 196.386ZM187.121 213.622C181.611 218.68 174.406 222.984 165.39 226.459L168.267 233.924C178 230.172 186.127 225.394 192.531 219.515L187.121 213.622ZM165.376 226.464C156.556 229.899 146.741 231.876 135.893 232.348L136.24 240.34C147.853 239.835 158.545 237.71 168.28 233.919L165.376 226.464ZM139.35 238.628C142.883 233.55 144.754 228.078 144.754 222.281H136.754C136.754 226.25 135.5 230.154 132.783 234.059L139.35 238.628ZM144.754 222.281C144.754 216.739 143.611 211.202 141.387 205.696L133.969 208.691C135.847 213.341 136.754 217.863 136.754 222.281H144.754ZM141.396 205.72C139.196 200.167 135.891 194.362 131.554 188.311L125.051 192.971C129.113 198.638 132.058 203.868 133.959 208.667L141.396 205.72ZM131.562 188.322C124.719 178.702 117.041 169.292 108.534 160.093L102.661 165.524C110.951 174.489 118.41 183.634 125.043 192.959L131.562 188.322ZM108.55 160.11C100.25 151.028 94.4827 144.581 91.2138 140.736L85.1183 145.917C88.49 149.883 94.3441 156.425 102.645 165.507L108.55 160.11ZM91.2515 140.781C88.1263 136.992 84.5354 132.161 80.4743 126.263L73.8851 130.8C78.0271 136.815 81.7605 141.847 85.0805 145.872L91.2515 140.781ZM80.4644 126.249C72.824 115.254 69.168 104.463 69.168 93.8145H61.168C61.168 106.408 65.5198 118.762 73.8949 130.814L80.4644 126.249ZM69.168 93.8145C69.168 83.075 72.4432 73.0903 79.1141 63.7694L72.6086 59.1134C65.0216 69.7144 61.168 81.3117 61.168 93.8145H69.168ZM79.1141 63.7694C85.812 54.4106 94.8804 46.9683 106.437 41.4694L103 34.2454C90.3383 40.27 80.1684 48.5503 72.6086 59.1134L79.1141 63.7694ZM106.426 41.4747C118.071 35.9784 130.822 33.1623 144.736 33.0683L144.682 25.0685C129.689 25.1698 115.781 28.213 103.011 34.2401L106.426 41.4747ZM197.488 117.545C197.488 107.585 195.691 97.3843 192.149 86.9611L184.574 89.535C187.868 99.229 189.488 108.56 189.488 117.545H197.488ZM192.145 86.9493C185.163 66.6123 173.48 50.1236 157.098 37.6086L152.242 43.9657C167.305 55.4741 178.083 70.6259 184.578 89.5468L192.145 86.9493ZM158.645 41.2288C158.628 41.3842 158.612 41.1173 159.199 40.375C159.762 39.6634 160.693 38.7494 162.113 37.6404L157.188 31.3362C155.482 32.6686 154.021 34.025 152.924 35.4131C151.851 36.7704 150.907 38.4322 150.694 40.3454L158.645 41.2288ZM162.113 37.6404C165.096 35.3101 166.773 34.8262 167.414 34.8262V26.8262C163.954 26.8262 160.455 28.7836 157.188 31.3362L162.113 37.6404ZM167.414 34.8262C174.038 34.8262 181.937 36.1462 191.171 38.9066L193.462 31.2418C183.75 28.3382 175.048 26.8262 167.414 26.8262V34.8262ZM191.181 38.9098C200.659 41.7144 208.007 44.3809 213.309 46.8923L216.734 39.6624C210.903 36.9003 203.114 34.0981 193.451 31.2386L191.181 38.9098ZM211.076 43.9349C211.504 46.5017 211.754 51.3275 211.754 58.6582H219.754C219.754 51.3405 219.516 45.9124 218.967 42.6197L211.076 43.9349ZM211.754 58.6582C211.754 65.6569 211.09 74.5594 209.734 85.4082L217.672 86.4004C219.051 75.3742 219.754 66.1126 219.754 58.6582H211.754ZM209.735 85.4038C208.38 96.1406 206.756 104.477 204.9 110.509L212.546 112.862C214.596 106.199 216.292 97.3477 217.672 86.4048L209.735 85.4038ZM205.009 110.2C205.154 109.837 205.26 109.98 204.526 110.458C203.845 110.901 202.744 111.435 201.098 112.013L203.75 119.561C205.717 118.87 207.472 118.085 208.891 117.162C210.257 116.272 211.705 114.999 212.437 113.171L205.009 110.2ZM201.159 111.992C197.863 113.091 195.338 113.545 193.488 113.545V121.545C196.521 121.545 199.954 120.827 203.689 119.582L201.159 111.992ZM119.383 222.904C118.233 229.423 116.596 232.696 115.194 233.986L120.611 239.873C124.092 236.671 126.068 231.058 127.261 224.295L119.383 222.904ZM117.902 232.93C107.972 232.93 96.1226 231.651 82.3164 229.044L80.8321 236.905C94.9555 239.572 107.325 240.93 117.902 240.93V232.93ZM82.3164 229.044C68.4921 226.434 58.9579 223.179 53.2763 219.508L48.9346 226.227C55.9484 230.759 66.7267 234.242 80.8321 236.905L82.3164 229.044ZM55.1013 222.686C55.0078 220.629 54.959 217.624 54.959 213.639H46.959C46.959 217.661 47.0078 220.809 47.1096 223.049L55.1013 222.686ZM54.959 213.639C54.959 194.912 57.1674 177.19 61.5658 160.456L53.8287 158.423C49.2428 175.869 46.959 194.279 46.959 213.639H54.959ZM61.5778 160.41C61.5611 160.476 61.6409 160.149 62.2831 159.393C62.8908 158.678 63.8285 157.782 65.1765 156.704L60.179 150.457C58.5973 151.722 57.24 152.974 56.1876 154.212C55.1696 155.41 54.224 156.84 53.8167 158.469L61.5778 160.41ZM65.2385 156.653C67.8692 154.461 69.6101 153.918 70.5879 153.918V145.918C66.8782 145.918 63.3456 147.817 60.117 150.507L65.2385 156.653ZM66.6726 150.737C69.0044 161.889 73.1495 173.034 79.0676 184.168L86.1317 180.414C80.5263 169.868 76.6636 159.431 74.5032 149.099L66.6726 150.737ZM79.0808 184.193C85.0862 195.303 91.8874 204.796 99.5096 212.621L105.24 207.039C98.2142 199.826 91.8318 190.959 86.1184 180.389L79.0808 184.193ZM99.5466 212.659C107.215 220.327 114.79 225.449 122.284 227.463L124.36 219.737C118.768 218.234 112.378 214.177 105.203 207.002L99.5466 212.659Z" fill="#6F4747" mask="url(#path-1-outside-1_0_1)"/>
<circle cx="135" cy="135" r="132.5" stroke="#AC5353" stroke-width="5"/>
</svg>
